<?xml version="1.0" encoding="UTF-8"?>
<svg xmlns="http://www.w3.org/2000/svg" aria-hidden="true">
  <symbol id="icon-ai-chat" viewBox="0 0 24 24">
    <title>Conversational AI assistant</title>
    <g>
    <g>
    <g>
    <g>
    <rect fill-rule="evenodd" stroke="none" width="24" height="24" fill="none"/>
    <path d="M12.42 12.75C12.8342 12.75 13.17 13.0858 13.17 13.5 13.17 13.8797 12.8878 14.1935 12.5218 14.2432L12.42 14.25H8.5675C8.15329 14.25 7.8175 13.9142 7.8175 13.5 7.8175 13.1203 8.09965 12.8065 8.46573 12.7568L8.5675 12.75H12.42Z" stroke="none" fill="currentColor"/>
    <path d="M11.13 8.75C11.419 8.75 11.6788 8.91554 11.8033 9.16957L11.8435 9.26883 13.4635 14.2688C13.5912 14.6629 13.3752 15.0858 12.9812 15.2135 12.62 15.3305 12.2345 15.1588 12.0744 14.8259L12.0365 14.7312 10.584 10.25H10.415L8.96348 14.7312C8.84645 15.0924 8.48132 15.3039 8.11776 15.2383L8.01883 15.2135C7.65762 15.0965 7.44607 14.7313 7.51166 14.3678L7.53652 14.2688 9.15652 9.26883C9.2456 8.99388 9.48314 8.79779 9.7632 8.75761L9.87 8.75H11.13Z" stroke="none" fill="currentColor"/>
    <path d="M15.5 8.75C15.8797 8.75 16.1935 9.03215 16.2432 9.39823L16.25 9.5V14.5C16.25 14.9142 15.9142 15.25 15.5 15.25 15.1203 15.25 14.8065 14.9678 14.7568 14.6018L14.75 14.5V9.5C14.75 9.08579 15.0858 8.75 15.5 8.75Z" stroke="none" fill="currentColor"/>
    <path d="M9.67379 2.53062C5.31329 3.6003 2.24783 7.51058 2.25 12.0004L2.25616 12.3527C2.3147 13.9942 2.7894 15.5927 3.63304 16.9983L3.828 17.309 3.26629 19.8382 3.25083 19.9378C3.20719 20.4315 3.65874 20.8446 4.16112 20.733L6.691 20.171 6.92215 20.3167C10.5404 22.5252 15.207 22.1461 18.427 19.3179 21.8004 16.355 22.713 11.4709 20.6371 7.4898 18.5613 3.50871 14.0343 1.46095 9.67379 2.53062ZM19.3071 8.18332C21.0634 11.5517 20.2913 15.684 17.4372 18.1909 14.583 20.6978 10.3856 20.9304 7.27196 18.7542L7.1639 18.6914C7.01412 18.6203 6.84376 18.6003 6.67962 18.6368L4.986 19.012 5.36257 17.3196C5.40834 17.1136 5.36523 16.8978 5.24381 16.7253 4.27059 15.3421 3.74882 13.6918 3.75 12.0005 3.74816 8.2009 6.3418 4.89247 10.0312 3.98743 13.7205 3.08239 17.5508 4.81497 19.3071 8.18332Z" stroke="none" fill="currentColor"/>
    </g>
    </g>
    </g>
    </g>
  </symbol>
  <symbol id="icon-ai-model" viewBox="0 0 24 24">
    <title>Small efficient AI model</title>
    <g>
    <g>
    <g>
    <g>
    <polygon points="0 24 0 0 24 0 24 24" fill-rule="evenodd" stroke="none" fill="none"/>
    <path d="M4.5 8.25C4.91421 8.25 5.25 8.58579 5.25 9 5.25 9.3797 4.96785 9.69349 4.60177 9.74315L4.5 9.75H3C2.58579 9.75 2.25 9.41421 2.25 9 2.25 8.6203 2.53215 8.30651 2.89823 8.25685L3 8.25H4.5Z" stroke="none" fill="currentColor"/>
    <path d="M4.5 14.25C4.91421 14.25 5.25 14.5858 5.25 15 5.25 15.3797 4.96785 15.6935 4.60177 15.7432L4.5 15.75H3C2.58579 15.75 2.25 15.4142 2.25 15 2.25 14.6203 2.53215 14.3065 2.89823 14.2568L3 14.25H4.5Z" stroke="none" fill="currentColor"/>
    <path d="M4 11.25C4.41421 11.25 4.75 11.5858 4.75 12 4.75 12.3797 4.46785 12.6935 4.10177 12.7432L4 12.75H2C1.58579 12.75 1.25 12.4142 1.25 12 1.25 11.6203 1.53215 11.3065 1.89823 11.2568L2 11.25H4Z" stroke="none" fill="currentColor"/>
    <path d="M4.74622 5.5C7.44121 2.48688 11.716 1.44933 15.4924 2.89177 19.2689 4.33421 21.7635 7.95742 21.7635 11.9999 21.7635 16.0424 19.2689 19.6657 15.4925 21.1081 11.7161 22.5506 7.44131 21.5131 4.74623 18.5 4.47008 18.1913 4.4965 17.7171 4.80523 17.441 5.11396 17.1648 5.5881 17.1913 5.86425 17.5 8.14471 20.0495 11.7619 20.9274 14.9573 19.7069 18.1527 18.4863 20.2635 15.4205 20.2635 11.9999 20.2635 8.57935 18.1526 5.51356 14.9572 4.29303 11.7618 3.07251 8.14463 3.95043 5.86426 6.5 5.58812 6.80874 5.11398 6.83516 4.80524 6.55902 4.4965 6.28288 4.47008 5.80874 4.74622 5.5Z" stroke="none" fill="currentColor"/>
    <path d="M12 7.24999C11.3603 7.24999 10.7715 7.59907 10.4646 8.16036L9.68511 9.58572C9.66217 9.62767 9.62768 9.66216 9.58573 9.6851L8.16035 10.4646C7.59907 10.7715 7.25 11.3603 7.25 12 7.25 12.6397 7.59907 13.2285 8.16035 13.5354L9.58571 14.3149C9.62766 14.3378 9.66216 14.3723 9.6851 14.4143L10.4646 15.8397C10.7715 16.4009 11.3603 16.75 12 16.75 12.6397 16.75 13.2285 16.4009 13.5354 15.8396L14.3149 14.4143C14.3378 14.3723 14.3723 14.3378 14.4143 14.3149L15.8397 13.5354C16.4009 13.2285 16.75 12.6397 16.75 12 16.75 11.3603 16.4009 10.7715 15.8396 10.4646L14.4143 9.68511C14.3723 9.66217 14.3378 9.62767 14.3149 9.58572L13.5354 8.16035C13.2285 7.59906 12.6397 7.24999 12 7.24999ZM12 8.74999C12.0914 8.74999 12.1755 8.79986 12.2194 8.88004L12.9988 10.3054C13.1594 10.5991 13.4009 10.8406 13.6946 11.0012L15.1199 11.7807C15.2001 11.8245 15.25 11.9086 15.25 12 15.25 12.0914 15.2001 12.1755 15.12 12.2193L13.6946 12.9988C13.4009 13.1594 13.1594 13.4009 12.9988 13.6946L12.2193 15.1199C12.1755 15.2001 12.0914 15.25 12 15.25 11.9086 15.25 11.8245 15.2001 11.7806 15.12L11.0012 13.6946C10.8406 13.4009 10.5991 13.1594 10.3054 12.9988L8.88005 12.2193C8.79986 12.1755 8.75 12.0914 8.75 12 8.75 11.9086 8.79986 11.8245 8.88005 11.7807L10.3054 11.0012C10.5991 10.8406 10.8406 10.5991 11.0012 10.3054L11.7807 8.88005C11.8245 8.79986 11.9086 8.74999 12 8.74999Z" stroke="none" fill="currentColor"/>
    </g>
    </g>
    </g>
    </g>
  </symbol>
  <symbol id="icon-processor" viewBox="0 0 24 24">
    <title>Mobile hardware acceleration</title>
    <g>
    <g>
    <g>
    <g>
    <polygon points="0 0 24 0 24 24 0 24" fill-rule="evenodd" stroke="none" fill="none"/>
    <path d="M9 16.23C9.3797 16.23 9.69349 16.5122 9.74315 16.8782L9.75 16.98V18C9.75 18.4142 9.41421 18.75 9 18.75 8.6203 18.75 8.30651 18.4678 8.25685 18.1018L8.25 18V16.98C8.25 16.5658 8.58579 16.23 9 16.23Z" stroke="none" fill="currentColor"/>
    <path d="M12 16.25C12.3797 16.25 12.6935 16.5322 12.7432 16.8982L12.75 17V18C12.75 18.4142 12.4142 18.75 12 18.75 11.6203 18.75 11.3065 18.4678 11.2568 18.1018L11.25 18V17C11.25 16.5858 11.5858 16.25 12 16.25Z" stroke="none" fill="currentColor"/>
    <path d="M15 16.23C15.3797 16.23 15.6935 16.5122 15.7432 16.8782L15.75 16.98V18C15.75 18.4142 15.4142 18.75 15 18.75 14.6203 18.75 14.3065 18.4678 14.2568 18.1018L14.25 18V16.98C14.25 16.5658 14.5858 16.23 15 16.23Z" stroke="none" fill="currentColor"/>
    <path d="M9 5.25C9.3797 5.25 9.69349 5.53215 9.74315 5.89823L9.75 6V7.03C9.75 7.44421 9.41421 7.78 9 7.78 8.6203 7.78 8.30651 7.49785 8.25685 7.13177L8.25 7.03V6C8.25 5.58579 8.58579 5.25 9 5.25Z" stroke="none" fill="currentColor"/>
    <path d="M12 5.25C12.3797 5.25 12.6935 5.53215 12.7432 5.89823L12.75 6V7C12.75 7.41421 12.4142 7.75 12 7.75 11.6203 7.75 11.3065 7.46785 11.2568 7.10177L11.25 7V6C11.25 5.58579 11.5858 5.25 12 5.25Z" stroke="none" fill="currentColor"/>
    <path d="M15 5.25C15.3797 5.25 15.6935 5.53215 15.7432 5.89823L15.75 6V7.03C15.75 7.44421 15.4142 7.78 15 7.78 14.6203 7.78 14.3065 7.49785 14.2568 7.13177L14.25 7.03V6C14.25 5.58579 14.5858 5.25 15 5.25Z" stroke="none" fill="currentColor"/>
    <path d="M7.02 8.25C7.43421 8.25 7.77 8.58579 7.77 9 7.77 9.3797 7.48785 9.69349 7.12177 9.74315L7.02 9.75H6C5.58579 9.75 5.25 9.41421 5.25 9 5.25 8.6203 5.53215 8.30651 5.89823 8.25685L6 8.25H7.02Z" stroke="none" fill="currentColor"/>
    <path d="M7 11.25C7.41421 11.25 7.75 11.5858 7.75 12 7.75 12.3797 7.46785 12.6935 7.10177 12.7432L7 12.75H6C5.58579 12.75 5.25 12.4142 5.25 12 5.25 11.6203 5.53215 11.3065 5.89823 11.2568L6 11.25H7Z" stroke="none" fill="currentColor"/>
    <path d="M7.02 14.25C7.43421 14.25 7.77 14.5858 7.77 15 7.77 15.3797 7.48785 15.6935 7.12177 15.7432L7.02 15.75H6C5.58579 15.75 5.25 15.4142 5.25 15 5.25 14.6203 5.53215 14.3065 5.89823 14.2568L6 14.25H7.02Z" stroke="none" fill="currentColor"/>
    <path d="M18 8.25C18.4142 8.25 18.75 8.58579 18.75 9 18.75 9.3797 18.4678 9.69349 18.1018 9.74315L18 9.75H16.97C16.5558 9.75 16.22 9.41421 16.22 9 16.22 8.6203 16.5022 8.30651 16.8682 8.25685L16.97 8.25H18Z" stroke="none" fill="currentColor"/>
    <path d="M18 11.25C18.4142 11.25 18.75 11.5858 18.75 12 18.75 12.3797 18.4678 12.6935 18.1018 12.7432L18 12.75H17C16.5858 12.75 16.25 12.4142 16.25 12 16.25 11.6203 16.5322 11.3065 16.8982 11.2568L17 11.25H18Z" stroke="none" fill="currentColor"/>
    <path d="M18 14.25C18.4142 14.25 18.75 14.5858 18.75 15 18.75 15.3797 18.4678 15.6935 18.1018 15.7432L18 15.75H16.97C16.5558 15.75 16.22 15.4142 16.22 15 16.22 14.6203 16.5022 14.3065 16.8682 14.2568L16.97 14.25H18Z" stroke="none" fill="currentColor"/>
    <path d="M18.2386 2.25H5.7614C3.82211 2.25 2.25 3.82211 2.25 5.7614V18.2386C2.25 20.1779 3.82211 21.75 5.7614 21.75H18.2386C20.1779 21.75 21.75 20.1779 21.75 18.2386V5.7614C21.75 3.82211 20.1779 2.25 18.2386 2.25ZM5.7614 3.75H18.2386C19.3495 3.75 20.25 4.65053 20.25 5.7614V18.2386C20.25 19.3495 19.3495 20.25 18.2386 20.25H5.7614C4.65053 20.25 3.75 19.3495 3.75 18.2386V5.7614C3.75 4.65053 4.65053 3.75 5.7614 3.75Z" stroke="none" fill="currentColor"/>
    <path d="M15.7104 6.25H8.28859C7.16271 6.25 6.25 7.16271 6.25 8.28859V15.7104C6.25 16.8363 7.16271 17.749 8.28859 17.749H15.7104C16.8363 17.749 17.749 16.8363 17.749 15.7104V8.28859C17.749 7.16271 16.8363 6.25 15.7104 6.25ZM8.28859 7.75H15.7104C16.0079 7.75 16.249 7.99113 16.249 8.28859V15.7104C16.249 16.0079 16.0079 16.249 15.7104 16.249H8.28859C7.99113 16.249 7.75 16.0079 7.75 15.7104V8.28859C7.75 7.99113 7.99113 7.75 8.28859 7.75Z" stroke="none" fill="currentColor"/>
    <path d="M11.1314 9.66379C11.3171 9.29352 11.7678 9.1439 12.138 9.32958 12.4774 9.49979 12.6314 9.89268 12.5117 10.2422L12.4722 10.3362 12.014 11.25H13.2012C13.7243 11.25 14.0756 11.7663 13.9114 12.2418L13.8716 12.3362 12.8686 14.3362C12.6829 14.7065 12.2322 14.8561 11.862 14.6704 11.5226 14.5002 11.3686 14.1073 11.4883 13.7578L11.5278 13.6638 11.985 12.75H10.7988C10.2757 12.75 9.92436 12.2337 10.0886 11.7582L10.1284 11.6638 11.1314 9.66379Z" stroke="none" fill="currentColor"/>
    </g>
    </g>
    </g>
    </g>
  </symbol>
  <symbol id="icon-mobile-code" viewBox="0 0 24 24">
    <title>Mobile AI platform</title>
    <g>
    <g>
    <g>
    <g>
    <polygon points="0 0 24 0 24 24 0 24" fill-rule="evenodd" stroke="none" fill="none"/>
    <path d="M13 2.25C14.4625 2.25 15.6584 3.3917 15.745 4.83248L15.75 5V8C15.75 8.41421 15.4142 8.75 15 8.75 14.6203 8.75 14.3065 8.46785 14.2568 8.10177L14.25 8V5C14.25 4.35279 13.7581 3.82047 13.1278 3.75645L13 3.75H5C4.35279 3.75 3.82047 4.24187 3.75645 4.87219L3.75 5V19C3.75 19.6472 4.24187 20.1795 4.87219 20.2435L5 20.25H8C8.41421 20.25 8.75 20.5858 8.75 21 8.75 21.3797 8.46785 21.6935 8.10177 21.7432L8 21.75H5C3.53747 21.75 2.3416 20.6083 2.25502 19.1675L2.25 19V5C2.25 3.53747 3.3917 2.3416 4.83248 2.25502L5 2.25H13Z" stroke="none" fill="currentColor"/>
    <path d="M11.4981 2.25C11.8778 2.25 12.1916 2.53215 12.2412 2.89823L12.2481 3V5C12.2481 5.64721 11.7562 6.17953 11.1259 6.24355L10.9981 6.25H6.99809C6.35088 6.25 5.81856 5.75813 5.75454 5.12781L5.74809 5V3C5.74809 2.58579 6.08388 2.25 6.49809 2.25 6.87779 2.25 7.19158 2.53215 7.24124 2.89823L7.24809 3 7.248 4.75H10.748L10.7481 3C10.7481 2.6203 11.0302 2.30651 11.3963 2.25685L11.4981 2.25Z" stroke="none" fill="currentColor"/>
    <path d="M12.9697 13.4697C13.2359 13.2034 13.6526 13.1792 13.9462 13.3971L14.0303 13.4697 15.5303 14.9697C15.7966 15.2359 15.8208 15.6526 15.6029 15.9462L15.5303 16.0303 14.0303 17.5303C13.7374 17.8232 13.2626 17.8232 12.9697 17.5303 12.7034 17.2641 12.6792 16.8474 12.8971 16.5538L12.9697 16.4697 13.939 15.5 12.9697 14.5303C12.7034 14.2641 12.6792 13.8474 12.8971 13.5538L12.9697 13.4697Z" stroke="none" fill="currentColor"/>
    <path d="M17.5 17.25C17.9142 17.25 18.25 17.5858 18.25 18 18.25 18.3797 17.9678 18.6935 17.6018 18.7432L17.5 18.75H16.5C16.0858 18.75 15.75 18.4142 15.75 18 15.75 17.6203 16.0322 17.3065 16.3982 17.2568L16.5 17.25H17.5Z" stroke="none" fill="currentColor"/>
    <path d="M18 10.25H13C10.9289 10.25 9.25 11.9289 9.25 14V18C9.25 20.0711 10.9289 21.75 13 21.75H18C20.0711 21.75 21.75 20.0711 21.75 18V14C21.75 11.9289 20.0711 10.25 18 10.25ZM13 11.75H18C19.2426 11.75 20.25 12.7574 20.25 14V18C20.25 19.2426 19.2426 20.25 18 20.25H13C11.7574 20.25 10.75 19.2426 10.75 18V14C10.75 12.7574 11.7574 11.75 13 11.75Z" stroke="none" fill="currentColor"/>
    </g>
    </g>
    </g>
    </g>
  </symbol>
  <symbol id="icon-ai-chip" viewBox="0 0 24 24">
    <title>On-device model/chip</title>
    <g>
    <g>
    <g>
    <g>
    <path d="M22.0001 8.25004C22.4143 8.25004 22.7501 8.58583 22.7501 9.00004 22.7501 9.37974 22.4679 9.69353 22.1018 9.74319L22.0001 9.75004H21.5001C21.0859 9.75004 20.7501 9.41425 20.7501 9.00004 20.7501 8.62034 21.0322 8.30655 21.3983 8.25689L21.5001 8.25004H22.0001Z" stroke="none" fill="currentColor"/>
    <path d="M22.0001 11.25C22.4143 11.25 22.7501 11.5858 22.7501 12 22.7501 12.3797 22.4679 12.6935 22.1018 12.7432L22.0001 12.75H21.5001C21.0859 12.75 20.7501 12.4143 20.7501 12 20.7501 11.6203 21.0322 11.3065 21.3983 11.2569L21.5001 11.25H22.0001Z" stroke="none" fill="currentColor"/>
    <path d="M22.0001 14.25C22.4143 14.25 22.7501 14.5858 22.7501 15 22.7501 15.3797 22.4679 15.6935 22.1018 15.7432L22.0001 15.75H21.5001C21.0859 15.75 20.7501 15.4143 20.7501 15 20.7501 14.6203 21.0322 14.3065 21.3983 14.2569L21.5001 14.25H22.0001Z" stroke="none" fill="currentColor"/>
    <path d="M15.1111 4.25H8.88889C6.3269 4.25 4.25 6.3269 4.25 8.88889V15.1111C4.25 17.6731 6.3269 19.75 8.88889 19.75H15.1111C17.6731 19.75 19.75 17.6731 19.75 15.1111V8.88889C19.75 6.3269 17.6731 4.25 15.1111 4.25ZM8.88889 5.75H15.1111C16.8447 5.75 18.25 7.15533 18.25 8.88889V15.1111C18.25 16.8447 16.8447 18.25 15.1111 18.25H8.88889C7.15533 18.25 5.75 16.8447 5.75 15.1111V8.88889C5.75 7.15533 7.15533 5.75 8.88889 5.75Z" stroke="none" fill="currentColor"/>
    <path d="M2.50006 8.25004C2.91427 8.25004 3.25006 8.58582 3.25006 9.00004 3.25006 9.37973 2.96791 9.69353 2.60183 9.74319L2.50006 9.75004H2.00006C1.58585 9.75004 1.25006 9.41425 1.25006 9.00004 1.25006 8.62034 1.53221 8.30654 1.89829 8.25688L2.00006 8.25004H2.50006Z" stroke="none" fill="currentColor"/>
    <path d="M2.50006 11.25C2.91427 11.25 3.25006 11.5858 3.25006 12 3.25006 12.3797 2.96791 12.6935 2.60183 12.7432L2.50006 12.75H2.00006C1.58585 12.75 1.25006 12.4142 1.25006 12 1.25006 11.6203 1.53221 11.3065 1.89829 11.2569L2.00006 11.25H2.50006Z" stroke="none" fill="currentColor"/>
    <path d="M2.50006 14.25C2.91427 14.25 3.25006 14.5858 3.25006 15 3.25006 15.3797 2.96791 15.6935 2.60183 15.7432L2.50006 15.75H2.00006C1.58585 15.75 1.25006 15.4142 1.25006 15 1.25006 14.6203 1.53221 14.3065 1.89829 14.2569L2.00006 14.25H2.50006Z" stroke="none" fill="currentColor"/>
    <path d="M9.00007 1.25003C9.37977 1.25003 9.69356 1.53218 9.74322 1.89826L9.75007 2.00003V2.50003C9.75007 2.91424 9.41428 3.25003 9.00007 3.25003 8.62037 3.25003 8.30658 2.96788 8.25692 2.6018L8.25007 2.50003V2.00003C8.25007 1.58582 8.58586 1.25003 9.00007 1.25003Z" stroke="none" fill="currentColor"/>
    <path d="M12.0001 1.25004C12.3798 1.25004 12.6936 1.53219 12.7432 1.89827L12.7501 2.00004V2.50003C12.7501 2.91424 12.4143 3.25004 12.0001 3.25004 11.6204 3.25004 11.3066 2.96788 11.2569 2.6018L11.2501 2.50003V2.00004C11.2501 1.58583 11.5859 1.25004 12.0001 1.25004Z" stroke="none" fill="currentColor"/>
    <path d="M15.0001 1.25004C15.3798 1.25004 15.6936 1.53219 15.7432 1.89827L15.7501 2.00004V2.50004C15.7501 2.91425 15.4143 3.25004 15.0001 3.25004 14.6204 3.25004 14.3066 2.96789 14.2569 2.60181L14.2501 2.50004V2.00004C14.2501 1.58583 14.5859 1.25004 15.0001 1.25004Z" stroke="none" fill="currentColor"/>
    <path d="M9.00006 20.75C9.37976 20.75 9.69355 21.0322 9.74321 21.3983L9.75006 21.5V22C9.75006 22.4143 9.41427 22.75 9.00006 22.75 8.62036 22.75 8.30657 22.4679 8.25691 22.1018L8.25006 22V21.5C8.25006 21.0858 8.58585 20.75 9.00006 20.75Z" stroke="none" fill="currentColor"/>
    <path d="M12.0001 20.75C12.3798 20.75 12.6936 21.0322 12.7432 21.3983L12.7501 21.5V22C12.7501 22.4143 12.4143 22.75 12.0001 22.75 11.6204 22.75 11.3066 22.4679 11.2569 22.1018L11.2501 22V21.5C11.2501 21.0858 11.5858 20.75 12.0001 20.75Z" stroke="none" fill="currentColor"/>
    <path d="M15.0001 20.75C15.3798 20.75 15.6936 21.0322 15.7432 21.3983L15.7501 21.5V22C15.7501 22.4143 15.4143 22.75 15.0001 22.75 14.6204 22.75 14.3066 22.4679 14.2569 22.1018L14.2501 22V21.5C14.2501 21.0858 14.5858 20.75 15.0001 20.75Z" stroke="none" fill="currentColor"/>
    <path d="M12.2655 12.6C12.6797 12.6 13.0155 12.9358 13.0155 13.35 13.0155 13.7297 12.7333 14.0435 12.3673 14.0932L12.2655 14.1H8.79825C8.38404 14.1 8.04825 13.7642 8.04825 13.35 8.04825 12.9703 8.3304 12.6565 8.69648 12.6068L8.79825 12.6H12.2655Z" stroke="none" fill="currentColor"/>
    <path d="M11.105 9C11.394 9 11.6538 9.16554 11.7783 9.41957L11.8185 9.51883 13.2765 14.0188C13.4042 14.4129 13.1882 14.8358 12.7942 14.9635 12.433 15.0805 12.0475 14.9088 11.8874 14.5759L11.8495 14.4812 10.559 10.5H10.516L9.22649 14.4812C9.10945 14.8424 8.74432 15.0539 8.38076 14.9883L8.28183 14.9635C7.92062 14.8465 7.70907 14.4813 7.77466 14.1178L7.79951 14.0188 9.25751 9.51883C9.3466 9.24388 9.58414 9.04779 9.8642 9.00761L9.971 9H11.105Z" stroke="none" fill="currentColor"/>
    <path d="M15.0375 9C15.4172 9 15.731 9.28215 15.7807 9.64823L15.7875 9.75V14.25C15.7875 14.6642 15.4517 15 15.0375 15 14.6578 15 14.344 14.7178 14.2943 14.3518L14.2875 14.25V9.75C14.2875 9.33579 14.6233 9 15.0375 9Z" stroke="none" fill="currentColor"/>
    <rect fill-rule="evenodd" stroke="none" width="24" height="24" fill="none"/>
    </g>
    </g>
    </g>
    </g>
  </symbol>
  <symbol id="icon-private" viewBox="0 0 24 24">
    <title>Private local inference</title>
    <g>
    <g>
    <g>
    <g>
    <g transform="translate(3 3)">
    <g>
    <path d="M6.266 10.45C4.94052 10.45 3.866 11.5245 3.866 12.85 3.866 14.1755 4.94052 15.25 6.266 15.25 7.59148 15.25 8.666 14.1755 8.666 12.85 8.666 11.5245 7.59148 10.45 6.266 10.45ZM6.266 11.95C6.76306 11.95 7.166 12.3529 7.166 12.85 7.166 13.3471 6.76306 13.75 6.266 13.75 5.76894 13.75 5.366 13.3471 5.366 12.85 5.366 12.3529 5.76894 11.95 6.266 11.95Z" stroke="none" fill="currentColor"/>
    <path d="M11.661 10.45C10.3355 10.45 9.261 11.5245 9.261 12.85 9.261 14.1755 10.3355 15.25 11.661 15.25 12.9865 15.25 14.061 14.1755 14.061 12.85 14.061 11.5245 12.9865 10.45 11.661 10.45ZM11.661 11.95C12.1581 11.95 12.561 12.3529 12.561 12.85 12.561 13.3471 12.1581 13.75 11.661 13.75 11.1639 13.75 10.761 13.3471 10.761 12.85 10.761 12.3529 11.1639 11.95 11.661 11.95Z" stroke="none" fill="currentColor"/>
    <path d="M7.31629 12.3996C7.99949 11.4899 9.29082 11.3063 10.2006 11.9895 10.3559 12.1061 10.494 12.2442 10.6107 12.3996 10.8595 12.7308 10.7926 13.201 10.4614 13.4497 10.1603 13.6758 9.74436 13.6411 9.48435 13.3841L9.41129 13.3004C9.37957 13.2581 9.34203 13.2206 9.29979 13.1889 9.07996 13.0238 8.77817 13.0449 8.58338 13.2253L8.51571 13.3004C8.26697 13.6316 7.79683 13.6985 7.46562 13.4497 7.13441 13.201 7.06755 12.7308 7.31629 12.3996Z" stroke="none" fill="currentColor"/>
    <path d="M3.18247 9.04253C6.86946 7.31954 11.1305 7.31954 14.8175 9.04253 15.1928 9.2179 15.3548 9.66427 15.1795 10.0395 15.0041 10.4148 14.5577 10.5768 14.1825 10.4015 10.898 8.86656 7.10204 8.86656 3.81753 10.4015 3.44227 10.5768 2.9959 10.4148 2.82053 10.0395 2.64517 9.66427 2.80721 9.2179 3.18247 9.04253Z" stroke="none" fill="currentColor"/>
    <path d="M7.085 2.75H10.9136C11.8244 2.74952 12.6093 3.37116 12.8273 4.24155L12.8598 4.39765 13.2398 6.67665C13.3079 7.08522 13.0319 7.47166 12.6234 7.53979 12.2488 7.60223 11.8929 7.37553 11.7837 7.02261L11.7602 6.92335 11.3802 4.64436C11.347 4.44515 11.192 4.29253 10.9989 4.25757L10.914 4.25H7.08521C6.88339 4.25006 6.70746 4.37775 6.64122 4.56209L6.61979 4.64435 6.23979 6.92335C6.17166 7.33193 5.78522 7.60791 5.37665 7.53979 5.00212 7.47734 4.73901 7.14742 4.75023 6.77816L4.76021 6.67665 5.14022 4.39764C5.28992 3.49986 6.03175 2.82848 6.92575 2.75642L7.085 2.75Z" stroke="none" fill="currentColor"/>
    <path d="M15.2386-.75H2.7614C.822107-.75-.75.822107-.75 2.7614V15.2386C-.75 17.1779.822107 18.75 2.7614 18.75H15.2386C17.1779 18.75 18.75 17.1779 18.75 15.2386V2.7614C18.75.822107 17.1779-.75 15.2386-.75ZM2.7614.75H15.2386C16.3495.75 17.25 1.65053 17.25 2.7614V15.2386C17.25 16.3495 16.3495 17.25 15.2386 17.25H2.7614C1.65053 17.25.75 16.3495.75 15.2386V2.7614C.75 1.65053 1.65053.75 2.7614.75Z" stroke="none" fill="currentColor"/>
    </g>
    </g>
    <rect fill-rule="evenodd" stroke="none" width="24" height="24" fill="none"/>
    </g>
    </g>
    </g>
    </g>
  </symbol>
  <symbol id="icon-function" viewBox="0 0 24 24">
    <title>Functional tool layer</title>
    <g>
    <g>
    <g>
    <g>
    <g transform="translate(3 3)">
    <g>
    <path d="M11.2653 3.25C11.9348 3.25024 12.5768 3.51626 13.0503 3.98959 13.3432 4.28245 13.3433 4.75732 13.0504 5.05026 12.7842 5.31656 12.3675 5.34082 12.0739 5.12301L11.9897 5.0504C11.7974 4.85815 11.5367 4.7501 11.2648 4.75 10.7948 4.74985 10.3905 5.06812 10.2733 5.51344L10.2501 5.6273 9.23416 12.5892C9.05328 13.8302 7.98892 14.7504 6.73473 14.75 6.06523 14.7498 5.42322 14.4837 4.94974 14.0104 4.65681 13.7176 4.65674 13.2427 4.94959 12.9497 5.21582 12.6834 5.63248 12.6592 5.92613 12.877L6.01025 12.9496C6.20257 13.1419 6.46334 13.2499 6.73524 13.25 7.20519 13.2501 7.60949 12.9319 7.72667 12.4866L7.74986 12.3727 8.76584 5.41083C8.94672 4.16979 10.0111 3.2496 11.2653 3.25Z" stroke="none" fill="currentColor"/>
    <path d="M12.26 7.8C12.6742 7.8 13.01 8.13579 13.01 8.55 13.01 8.9297 12.7278 9.24349 12.3618 9.29315L12.26 9.3H6.26C5.84579 9.3 5.51 8.96421 5.51 8.55 5.51 8.1703 5.79215 7.85651 6.15823 7.80685L6.26 7.8H12.26Z" stroke="none" fill="currentColor"/>
    <path d="M9-.75C3.61522-.75-.75 3.61522-.75 9 -.75 14.3848 3.61522 18.75 9 18.75 14.3848 18.75 18.75 14.3848 18.75 9 18.75 3.61522 14.3848-.75 9-.75ZM9 .75C13.5563.75 17.25 4.44365 17.25 9 17.25 13.5563 13.5563 17.25 9 17.25 4.44365 17.25.75 13.5563.75 9 .75 4.44365 4.44365.75 9 .75Z" stroke="none" fill="currentColor"/>
    </g>
    </g>
    <polygon points="24 24 0 24 0 0 24 0" fill-rule="evenodd" stroke="none" fill="none"/>
    </g>
    </g>
    </g>
    </g>
  </symbol>
  <symbol id="icon-plugin" viewBox="0 0 24 24">
    <title>Typed tool/function layer</title>
    <g>
    <g>
    <g>
    <g>
    <g transform="translate(3.99899 3)">
    <g>
    <path d="M8.001-.75C6.52143-.75 5.251.202823 5.251 1.5 5.251 2.79718 6.52143 3.75 8.001 3.75 9.48057 3.75 10.751 2.79718 10.751 1.5 10.751.202823 9.48057-.75 8.001-.75ZM8.001.75C8.73057.75 9.251 1.14032 9.251 1.5 9.251 1.85968 8.73057 2.25 8.001 2.25 7.27143 2.25 6.751 1.85968 6.751 1.5 6.751 1.14032 7.27143.75 8.001.75Z" stroke="none" fill="currentColor"/>
    <path d="M8.001 5.25C6.52143 5.25 5.251 6.20282 5.251 7.5 5.251 8.79718 6.52143 9.75 8.001 9.75 9.48057 9.75 10.751 8.79718 10.751 7.5 10.751 6.20282 9.48057 5.25 8.001 5.25ZM8.001 6.75C8.73057 6.75 9.251 7.14032 9.251 7.5 9.251 7.85968 8.73057 8.25 8.001 8.25 7.27143 8.25 6.751 7.85968 6.751 7.5 6.751 7.14032 7.27143 6.75 8.001 6.75Z" stroke="none" fill="currentColor"/>
    <path d="M14.001 1.75C13.0657 1.75 12.1829 2.13228 11.6746 2.7925 11.1098 3.52628 11.1098 4.47372 11.6746 5.2075 12.1829 5.86772 13.0657 6.25 14.001 6.25 14.9363 6.25 15.8191 5.86772 16.3274 5.2075 16.8922 4.47372 16.8922 3.52628 16.3274 2.7925 15.8191 2.13228 14.9363 1.75 14.001 1.75ZM14.001 3.25C14.4948 3.25 14.9325 3.43952 15.1387 3.7075 15.2884 3.90192 15.2884 4.09808 15.1387 4.2925 14.9325 4.56048 14.4948 4.75 14.001 4.75 13.5072 4.75 13.0695 4.56048 12.8633 4.2925 12.7136 4.09808 12.7136 3.90192 12.8633 3.7075 13.0695 3.43952 13.5072 3.25 14.001 3.25Z" stroke="none" fill="currentColor"/>
    <path d="M14.001 1.75C13.0657 1.75 12.1829 2.13228 11.6746 2.7925 11.1098 3.52628 11.1098 4.47372 11.6746 5.2075 12.1829 5.86772 13.0657 6.25 14.001 6.25 14.9363 6.25 15.8191 5.86772 16.3274 5.2075 16.8922 4.47372 16.8922 3.52628 16.3274 2.7925 15.8191 2.13228 14.9363 1.75 14.001 1.75ZM14.001 3.25C14.4948 3.25 14.9325 3.43952 15.1387 3.7075 15.2884 3.90192 15.2884 4.09808 15.1387 4.2925 14.9325 4.56048 14.4948 4.75 14.001 4.75 13.5072 4.75 13.0695 4.56048 12.8633 4.2925 12.7136 4.09808 12.7136 3.90192 12.8633 3.7075 13.0695 3.43952 13.5072 3.25 14.001 3.25Z" stroke="none" fill="currentColor"/>
    <path d="M2.001 1.75C1.06572 1.75.182885 2.13228-.325355 2.7925 -.890215 3.52628-.890215 4.47372-.325355 5.2075 .182885 5.86772 1.06572 6.25 2.001 6.25 2.93628 6.25 3.81911 5.86772 4.32736 5.2075 4.89222 4.47372 4.89222 3.52628 4.32736 2.7925 3.81911 2.13228 2.93628 1.75 2.001 1.75ZM2.001 3.25C2.49479 3.25 2.93246 3.43952 3.13875 3.7075 3.28842 3.90192 3.28842 4.09808 3.13875 4.2925 2.93246 4.56048 2.49479 4.75 2.001 4.75 1.50721 4.75 1.06954 4.56048.863254 4.2925 .713582 4.09808.713582 3.90192.863254 3.7075 1.06954 3.43952 1.50721 3.25 2.001 3.25Z" stroke="none" fill="currentColor"/>
    <path d="M15.97 7.21C16.3497 7.21 16.6635 7.49215 16.7132 7.85823L16.72 7.96V12.96C16.72 13.9281 16.2024 14.831 15.3783 15.3255L15.323 15.355 15.2962 15.3772 15.2054 15.4308 9.20541 18.4308C8.49358 18.7867 7.6647 18.8141 6.93486 18.513L6.879 18.487 6.85557 18.4801 6.76459 18.4408 .772551 15.4447C-.103626 15.0195-.675151 14.1498-.743169 13.1843L-.748 12.974 -.749 8C-.749 7.6203-.466846 7.30651-.100771 7.25685L.001 7.25C.380696 7.25.694491 7.53215.744153 7.89823L.751 8V13.004L.757838 13.1304C.799346 13.5007 1.00339 13.833 1.31403 14.0313L1.43541 14.0992 7.339 17.051 7.42541 17.0892C7.73066 17.2418 8.08385 17.2609 8.40108 17.1464L8.53459 17.0892 14.4406 14.135 14.5306 14.0812C14.9069 13.8902 15.1643 13.5135 15.212 13.0993L15.22 12.96V7.96C15.22 7.54579 15.5558 7.21 15.97 7.21Z" stroke="none" fill="currentColor"/>
    <path d="M8.001 11.25C8.3807 11.25 8.69449 11.5322 8.74415 11.8982L8.751 12V18C8.751 18.4142 8.41521 18.75 8.001 18.75 7.6213 18.75 7.30751 18.4678 7.25785 18.1018L7.251 18V12C7.251 11.5858 7.58679 11.25 8.001 11.25Z" stroke="none" fill="currentColor"/>
    </g>
    </g>
    <polygon points="0 0 24 0 24 24 0 24" fill-rule="evenodd" stroke="none" fill="none"/>
    </g>
    </g>
    </g>
    </g>
  </symbol>
  <symbol id="icon-certificate-check" viewBox="0 0 24 24">
    <title>Explicit action confirmation</title>
    <g>
    <g>
    <g>
    <g>
    <g transform="translate(2.99974 2.99974)">
    <g>
    <path d="M7.93657-.387909C8.5214-.838415 9.32121-.868449 9.93538-.478597L10.064-.388631 11.1872.473724C11.2211.499745 11.2611.516014 11.3037.521248L11.3694.520659 12.7751.335699C13.5102.238676 14.2213.616537 14.5556 1.26612L14.6173 1.3996 15.1586 2.7084C15.1752 2.7486 15.2018 2.78302 15.2357 2.80897L15.2919 2.84119 16.6006 3.3825C17.2823 3.6653 17.7078 4.34207 17.6774 5.06793L17.6638 5.22409 17.4786 6.63156C17.4729 6.6743 17.4788 6.7175 17.495 6.75687L17.5271 6.8125 18.3894 7.93556C18.8399 8.5204 18.8699 9.32021 18.4802 9.93423L18.3903 10.0628 17.5584 11.1469C17.514 11.2046 17.4881 11.2741 17.4834 11.3465L17.4859 11.4196 17.6638 12.7741C17.7608 13.5092 17.383 14.2203 16.7334 14.5546L16.5999 14.6163 15.2911 15.1576C15.2509 15.1742 15.2165 15.2008 15.1905 15.2347L15.1583 15.2909 14.617 16.5996C14.3342 17.2813 13.6574 17.7068 12.9316 17.6764L12.7754 17.6628 11.3679 17.4776C11.3252 17.4719 11.282 17.4778 11.2426 17.494L11.187 17.5261 10.0639 18.3884C9.4791 18.8389 8.67929 18.8689 8.06527 18.4792L7.93668 18.3893 6.8526 17.5574C6.79491 17.513 6.72541 17.4871 6.65325 17.4824L6.58055 17.4848 5.22639 17.6638C4.49132 17.7608 3.78023 17.383 3.44593 16.7334L3.38419 16.5999 2.84286 15.2911C2.82629 15.2509 2.79974 15.2165 2.76578 15.1905L2.7096 15.1583 1.40085 14.617C.719199 14.3342.29374 13.6574.324103 12.9316L.337659 12.7754 .522854 11.3679C.528564 11.3252.522723 11.282.506454 11.2426L.474369 11.187 -.387909 10.0639C-.838415 9.4791-.868449 8.67929-.478597 8.06512L-.388631 7.9365 .473724 6.81335C.500059 6.77895.516736 6.73798.522457 6.69544L.522659 6.63109 .337699 5.22539C.241163 4.49401.614742 3.78732 1.25975 3.4496L1.40205 3.38301 2.70698 2.84428C2.74834 2.82699 2.78405 2.7993 2.81057 2.7653L2.84301 2.71005 3.3835 1.40085C3.6663.719199 4.34307.29374 5.06893.324103L5.22509.337659 6.62977.522487C6.67367.528184 6.7181.522115 6.7579.505959L6.8135.474369 7.93657-.387909ZM9.15037.801027C9.07962.746681 8.987.735811 8.90756.768472L8.851.801131 7.72478 1.66582C7.4035 1.91061 7.00883 2.03603 6.60758 2.02364L6.43541 2.00984 5.02911 1.8248C4.94087 1.81315 4.85489 1.8503 4.80224 1.91812L4.76949 1.97445 4.22822 3.28552C4.07241 3.65823 3.79364 3.96412 3.43896 4.15491L3.28245 4.22949 1.97565 4.769C1.89266 4.80343 1.8366 4.87865 1.82496 4.96399L1.82484 5.02941 2.01001 6.43673C2.06205 6.83772 1.97352 7.24282 1.76217 7.58393L1.66413 7.726 .801027 8.85013C.746681 8.92088.735811 9.0135.768472 9.09294L.801131 9.1495 1.66445 10.2739C1.91141 10.596 2.03749 10.9923 2.02415 11.3932L2.00984 11.5651 1.8248 12.9714C1.81315 13.0596 1.8503 13.1456 1.91835 13.1984L1.9749 13.2312 3.2821 13.7719C3.66406 13.9293 3.97569 14.216 4.1644 14.579L4.22931 14.7186 4.77059 16.0273C4.80434 16.1091 4.87951 16.165 4.96469 16.1766L5.02995 16.1767 6.38395 15.9977 6.54821 15.9833C6.93122 15.9667 7.31008 16.0683 7.63233 16.2738L7.76682 16.3682 8.85013 17.1995C8.92088 17.2538 9.0135 17.2647 9.09294 17.232L9.1495 17.1994 10.2739 16.336C10.596 16.0891 10.9923 15.963 11.3932 15.9764L11.5651 15.9907 12.9714 16.1757C13.0596 16.1873 13.1456 16.1502 13.1984 16.0822L13.2312 16.0256 13.7719 14.7184C13.9293 14.3364 14.216 14.0248 14.579 13.8361L14.7186 13.7712 16.0273 13.2299C16.1091 13.1962 16.165 13.121 16.1765 13.0355L16.1766 12.9699 15.9987 11.6155C15.9408 11.1777 16.04 10.7355 16.2748 10.3672L16.3692 10.2327 17.2005 9.14937C17.2548 9.07862 17.2657 8.986 17.233 8.90656L17.2004 8.85 16.337 7.72557C16.0901 7.40346 15.964 7.00724 15.9774 6.60632L15.9917 6.43441 16.1767 5.02811C16.1883 4.93987 16.1512 4.85389 16.0832 4.80115L16.0266 4.76831 14.7194 4.22764C14.3374 4.07018 14.0258 3.78349 13.8371 3.4205L13.7722 3.2809 13.2309 1.97223C13.1972 1.89039 13.122 1.83453 13.0366 1.82295L12.9711 1.82284 11.5693 2.00727C11.167 2.06256 10.7599 1.97467 10.4172 1.76258L10.2745 1.66413 9.15037.801027Z" stroke="none" fill="currentColor"/>
    <path d="M11.2689 7.07092C11.5618 6.77803 12.0367 6.77803 12.3296 7.07092 12.5958 7.33719 12.6201 7.75385 12.4022 8.04746L12.3296 8.13158 8.82858 11.6326C8.56227 11.8989 8.14552 11.9231 7.85191 11.7051L7.76779 11.6325 5.66879 9.53245C5.37597 9.23949 5.37608 8.76462 5.66905 8.47179 5.93538 8.20559 6.35205 8.18148 6.64561 8.39941L6.72971 8.47205 8.297 10.041 11.2689 7.07092Z" stroke="none" fill="currentColor"/>
    </g>
    </g>
    <polygon points="0 0 24 0 24 24 0 24" fill-rule="evenodd" stroke="none" fill="none"/>
    </g>
    </g>
    </g>
    </g>
  </symbol>
  <symbol id="icon-document-shield" viewBox="0 0 24 24">
    <title>Documented privacy guardrails</title>
    <g>
    <g>
    <g>
    <path d="M10 2.25C10.4142 2.25 10.75 2.58579 10.75 3 10.75 3.41421 10.4142 3.75 10 3.75H6C4.75736 3.75 3.75 4.75736 3.75 6V18C3.75 19.2426 4.75736 20.25 6 20.25H17C18.2426 20.25 19.25 19.2426 19.25 18V15C19.25 14.5858 19.5858 14.25 20 14.25 20.4142 14.25 20.75 14.5858 20.75 15V18C20.75 20.0711 19.0711 21.75 17 21.75H6C3.92893 21.75 2.25 20.0711 2.25 18V6C2.25 3.92893 3.92893 2.25 6 2.25H10Z" fill="currentColor"/>
    <path d="M16 15.25C16.4142 15.25 16.75 15.5858 16.75 16 16.75 16.4142 16.4142 16.75 16 16.75H7C6.58579 16.75 6.25 16.4142 6.25 16 6.25 15.5858 6.58579 15.25 7 15.25H16Z" fill="currentColor"/>
    <path d="M10 11.25C10.4142 11.25 10.75 11.5858 10.75 12 10.75 12.4142 10.4142 12.75 10 12.75H7C6.58579 12.75 6.25 12.4142 6.25 12 6.25 11.5858 6.58579 11.25 7 11.25H10Z" fill="currentColor"/>
    <path d="M9 7.25C9.41421 7.25 9.75 7.58579 9.75 8 9.75 8.41421 9.41421 8.75 9 8.75H7C6.58579 8.75 6.25 8.41421 6.25 8 6.25 7.58579 6.58579 7.25 7 7.25H9Z" fill="currentColor"/>
    <path d="M19 2.25H15C13.2051 2.25 11.75 3.70507 11.75 5.5V7.1044C11.75 9.81628 13.6642 12.1512 16.3234 12.683L16.5634 12.7218C16.9539 12.7688 17.3197 12.7544 17.6767 12.683L17.9147 12.6299C20.4646 11.9983 22.25 9.72145 22.25 7.10438V5.5C22.25 3.70507 20.7949 2.25 19 2.25ZM19 3.75C19.9665 3.75 20.75 4.5335 20.75 5.5V7.10438C20.75 9.03133 19.4352 10.708 17.5706 11.17L17.3658 11.2156C17.1807 11.2525 16.9739 11.2606 16.7698 11.2364L16.5883 11.2069C14.6595 10.8205 13.25 9.10126 13.25 7.1044V5.5C13.25 4.5335 14.0335 3.75 15 3.75H19Z" fill="currentColor"/>
    <path d="M17.7197 5.96967C18.0126 5.67678 18.4874 5.67678 18.7803 5.96967 19.0732 6.26256 19.0732 6.73744 18.7803 7.03033L17.2803 8.53033C16.9874 8.82322 16.5126 8.82322 16.2197 8.53033L15.2197 7.53033C14.9268 7.23744 14.9268 6.76256 15.2197 6.46967 15.5126 6.17678 15.9874 6.17678 16.2803 6.46967L16.749 6.939 17.7197 5.96967Z" fill="currentColor"/>
    </g>
    </g>
    </g>
  </symbol>
  <symbol id="icon-dashboard" viewBox="0 0 24 24">
    <title>Generative UI/native surfaces</title>
    <g>
    <g>
    <g>
    <g>
    <rect fill-rule="evenodd" stroke="none" width="24" height="24" fill="none"/>
    <path d="M12 9.25C12.3797 9.25 12.6935 9.53215 12.7432 9.89823L12.75 10V12.5C12.75 12.9142 12.4142 13.25 12 13.25 11.6203 13.25 11.3065 12.9678 11.2568 12.6018L11.25 12.5V10C11.25 9.58579 11.5858 9.25 12 9.25Z" stroke="none" fill="currentColor"/>
    <path d="M16 2.25H8C4.82436 2.25 2.25 4.82436 2.25 8V16C2.25 19.1756 4.82436 21.75 8 21.75H16C19.1756 21.75 21.75 19.1756 21.75 16V8C21.75 4.82436 19.1756 2.25 16 2.25ZM8 3.75H16C18.3472 3.75 20.25 5.65279 20.25 8V16C20.25 18.3472 18.3472 20.25 16 20.25H8C5.65279 20.25 3.75 18.3472 3.75 16V8C3.75 5.65279 5.65279 3.75 8 3.75Z" stroke="none" fill="currentColor"/>
    <path d="M12 6.22954C14.4822 6.22954 16.6842 7.82241 17.4611 10.1799 18.238 12.5374 17.4143 15.1274 15.4184 16.6031 15.0853 16.8493 14.6157 16.7789 14.3695 16.4459 14.1232 16.1128 14.1936 15.6432 14.5267 15.3969 16.0019 14.3062 16.6107 12.3919 16.0365 10.6494 15.4623 8.90688 13.8347 7.72954 12 7.72954 10.1653 7.72954 8.53773 8.90688 7.96352 10.6494 7.3893 12.3919 7.99809 14.3062 9.47335 15.3969 9.80641 15.6432 9.87679 16.1128 9.63054 16.4459 9.38429 16.7789 8.91466 16.8493 8.58159 16.6031 6.58566 15.1274 5.762 12.5374 6.53888 10.1799 7.31575 7.82241 9.51777 6.22954 12 6.22954Z" stroke="none" fill="currentColor"/>
    </g>
    </g>
    </g>
    </g>
  </symbol>
  <symbol id="icon-ui-payload" viewBox="0 0 24 24">
    <title>Typed visual payload</title>
    <g>
    <g>
    <g>
    <g>
    <path d="M11 16.25C11.4142 16.25 11.75 16.5858 11.75 17 11.75 17.3797 11.4678 17.6935 11.1018 17.7432L11 17.75H7C6.58579 17.75 6.25 17.4142 6.25 17 6.25 16.6203 6.53215 16.3065 6.89823 16.2568L7 16.25H11Z" stroke="none" fill="currentColor"/>
    <path d="M16.9697 15.0319C17.2626 14.739 17.7374 14.739 18.0303 15.0319 18.2966 15.2981 18.3208 15.7148 18.1029 16.0084L18.0303 16.0925 16.1547 17.9681C15.8884 18.2345 15.4716 18.2586 15.178 18.0406L15.0938 17.9679 13.9694 16.8425C13.6767 16.5495 13.6769 16.0747 13.9699 15.7819 14.2363 15.5157 14.653 15.4917 14.9465 15.7097L15.0306 15.7823 15.624 16.377 16.9697 15.0319Z" stroke="none" fill="currentColor"/>
    <path d="M18 2.25H6C3.92893 2.25 2.25 3.92893 2.25 6V18C2.25 20.0711 3.92893 21.75 6 21.75H18C20.0711 21.75 21.75 20.0711 21.75 18V6C21.75 3.92893 20.0711 2.25 18 2.25ZM6 3.75H18C19.2426 3.75 20.25 4.75736 20.25 6V18C20.25 19.2426 19.2426 20.25 18 20.25H6C4.75736 20.25 3.75 19.2426 3.75 18V6C3.75 4.75736 4.75736 3.75 6 3.75Z" stroke="none" fill="currentColor"/>
    <path d="M15 12.75C15.4142 12.75 15.75 13.0858 15.75 13.5 15.75 13.8797 15.4678 14.1935 15.1018 14.2432L15 14.25H7C6.58579 14.25 6.25 13.9142 6.25 13.5 6.25 13.1203 6.53215 12.8065 6.89823 12.7568L7 12.75H15Z" stroke="none" fill="currentColor"/>
    <path d="M16.5 6.25H7.5C6.80964 6.25 6.25 6.80964 6.25 7.5V9.5C6.25 10.1904 6.80964 10.75 7.5 10.75H16.5C17.1904 10.75 17.75 10.1904 17.75 9.5V7.5C17.75 6.80964 17.1904 6.25 16.5 6.25ZM16.25 7.75V9.25H7.75V7.75H16.25Z" stroke="none" fill="currentColor"/>
    <rect fill-rule="evenodd" stroke="none" width="24" height="24" fill="none"/>
    </g>
    </g>
    </g>
    </g>
  </symbol>
  <symbol id="icon-database-sync" viewBox="0 0 24 24">
    <title>Mobile offline persistence</title>
    <g>
    <g>
    <g>
    <g>
    <polygon points="0 0 24 0 24 24 0 24" fill-rule="evenodd" stroke="none" fill="none"/>
    <path d="M20.999 16.25C21.4132 16.25 21.749 16.5858 21.749 17 21.749 18.6316 19.7916 19.75 17.499 19.75 15.2072 19.75 13.25 18.6309 13.25 17 13.25 16.5858 13.5858 16.25 14 16.25 14.4142 16.25 14.75 16.5858 14.75 17 14.75 17.5777 15.9259 18.25 17.499 18.25 19.0729 18.25 20.249 17.5781 20.249 17 20.249 16.5858 20.5848 16.25 20.999 16.25Z" stroke="none" fill="currentColor"/>
    <path d="M21 13.25C21.4142 13.25 21.75 13.5858 21.75 14 21.75 15.6316 19.7926 16.75 17.5 16.75 15.2074 16.75 13.25 15.6316 13.25 14 13.25 13.5858 13.5858 13.25 14 13.25 14.3797 13.25 14.6935 13.5322 14.7432 13.8982L14.75 14C14.75 14.5781 15.9261 15.25 17.5 15.25 19.0739 15.25 20.25 14.5781 20.25 14 20.25 13.5858 20.5858 13.25 21 13.25Z" stroke="none" fill="currentColor"/>
    <path d="M17.5 11.25C15.2092 11.25 13.2515 12.3689 13.25 13.9993V20C13.25 21.6309 15.2072 22.75 17.499 22.75 19.7916 22.75 21.749 21.6316 21.749 20V14C21.7505 12.3688 19.7923 11.25 17.5 11.25ZM17.5 12.75C19.0732 12.75 20.2495 13.4221 20.249 13.9993V20C20.249 20.5781 19.0729 21.25 17.499 21.25 15.9259 21.25 14.75 20.5777 14.75 20V14C14.7505 13.4227 15.9275 12.75 17.5 12.75Z" stroke="none" fill="currentColor"/>
    <path d="M8 9.75C8.41421 9.75 8.75 10.0858 8.75 10.5 8.75 10.8797 8.46785 11.1935 8.10177 11.2432L8 11.25H6C5.58579 11.25 5.25 10.9142 5.25 10.5 5.25 10.1203 5.53215 9.80651 5.89823 9.75685L6 9.75H8Z" stroke="none" fill="currentColor"/>
    <path d="M9 1.25H5C3.48079 1.25 2.25 2.48079 2.25 4V11C2.25 12.5192 3.48079 13.75 5 13.75H9C10.5192 13.75 11.75 12.5192 11.75 11V4C11.75 2.48079 10.5192 1.25 9 1.25ZM5 2.75H9C9.69079 2.75 10.25 3.30921 10.25 4V11C10.25 11.6908 9.69079 12.25 9 12.25H5C4.30921 12.25 3.75 11.6908 3.75 11V4C3.75 3.30921 4.30921 2.75 5 2.75Z" stroke="none" fill="currentColor"/>
    <path d="M4 16.25C4.3797 16.25 4.69349 16.5322 4.74315 16.8982L4.75 17V19.286C4.75 19.7798 5.12267 20.1877 5.60169 20.2435L5.714 20.25H10C10.4142 20.25 10.75 20.5858 10.75 21 10.75 21.3797 10.4678 21.6935 10.1018 21.7432L10 21.75H5.714C4.40819 21.75 3.33871 20.7328 3.25524 19.4479L3.25 19.286V17C3.25 16.5858 3.58579 16.25 4 16.25Z" stroke="none" fill="currentColor"/>
    <path d="M18.286 2.25C19.5918 2.25 20.6613 3.26725 20.7448 4.55206L20.75 4.714V8C20.75 8.41421 20.4142 8.75 20 8.75 19.6203 8.75 19.3065 8.46785 19.2568 8.10177L19.25 8V4.714C19.25 4.2202 18.8773 3.81225 18.3983 3.75649L18.286 3.75H15C14.5858 3.75 14.25 3.41421 14.25 3 14.25 2.6203 14.5322 2.30651 14.8982 2.25685L15 2.25H18.286Z" stroke="none" fill="currentColor"/>
    </g>
    </g>
    </g>
    </g>
  </symbol>
  <symbol id="icon-database-shield" viewBox="0 0 24 24">
    <title>Protected local storage</title>
    <g>
    <g>
    <g>
    <g>
    <polygon points="0 0 24 0 24 24 0 24" fill-rule="evenodd" stroke="none" fill="none"/>
    <path d="M15 9.75C16.4625 9.75 17.6584 10.8917 17.745 12.3325L17.75 12.5V13.5C17.75 13.9142 17.4142 14.25 17 14.25 16.6203 14.25 16.3065 13.9678 16.2568 13.6018L16.25 13.5V12.5C16.25 11.8528 15.7581 11.3205 15.1278 11.2565L15 11.25H9C8.35279 11.25 7.82047 11.7419 7.75645 12.3722L7.75 12.5V13.5C7.75 13.9142 7.41421 14.25 7 14.25 6.6203 14.25 6.30651 13.9678 6.25685 13.6018L6.25 13.5V12.5C6.25 11.0375 7.3917 9.8416 8.83248 9.75502L9 9.75H15Z" stroke="none" fill="currentColor"/>
    <g transform="translate(24 22) skewY(.00057) scale(-1)">
    <path d="M15 5.75H9C7.48122 5.75 6.25 6.98122 6.25 8.5V13.5C6.25 15.0188 7.48122 16.25 9 16.25H15C16.5188 16.25 17.75 15.0188 17.75 13.5V8.5C17.75 6.98122 16.5188 5.75 15 5.75ZM9 7.25H15C15.6904 7.25 16.25 7.80964 16.25 8.5V13.5C16.25 14.1904 15.6904 14.75 15 14.75H9C8.30964 14.75 7.75 14.1904 7.75 13.5V8.5C7.75 7.80964 8.30964 7.25 9 7.25Z" stroke="none" fill="currentColor"/>
    </g>
    <path d="M13.4697 12.4697C13.7359 12.2034 14.1526 12.1792 14.4462 12.3971L14.5303 12.4697C14.8011 12.7405 14.8258 13.1576 14.6079 13.4512L14.5353 13.5353C14.2645 13.8061 13.8474 13.8308 13.5538 13.6129L13.4697 13.5403C13.1989 13.2695 13.1742 12.8524 13.3921 12.5588L13.4697 12.4697Z" stroke="none" fill="currentColor"/>
    <path d="M16 2.25H8C4.82436 2.25 2.25 4.82436 2.25 8V11.2088C2.25 16.275 5.82595 20.637 10.7938 21.6306L11.1155 21.6858C11.8245 21.7866 12.5243 21.7669 13.2062 21.6305L13.4921 21.5692C18.3243 20.4601 21.75 16.1649 21.75 11.2088V8C21.75 4.82436 19.1756 2.25 16 2.25ZM8 3.75H16C18.3472 3.75 20.25 5.65279 20.25 8V11.2088C20.25 15.4654 17.3077 19.1544 13.167 20.1049L12.9017 20.1618C12.3964 20.2628 11.8672 20.2777 11.347 20.2039L11.0671 20.1558C6.82127 19.3064 3.75 15.56 3.75 11.2088V8C3.75 5.65279 5.65279 3.75 8 3.75Z" stroke="none" fill="currentColor"/>
    </g>
    </g>
    </g>
    </g>
  </symbol>
  <symbol id="icon-globe-lock" viewBox="0 0 24 24">
    <title>Intentional private cloud use</title>
    <g>
    <g>
    <g>
    <path d="M14 2.47468C14.4142 2.47468 14.75 2.81047 14.75 3.22468V7C14.75 8.51878 13.5188 9.75 12 9.75H10C9.30964 9.75 8.75 10.3096 8.75 11V13C8.75 14.5188 7.51878 15.75 6 15.75H3.51387C3.09966 15.75 2.76387 15.4142 2.76387 15 2.76387 14.5858 3.09966 14.25 3.51387 14.25H6C6.69036 14.25 7.25 13.6904 7.25 13V11C7.25 9.48122 8.48122 8.25 10 8.25H12C12.6904 8.25 13.25 7.69036 13.25 7V3.22468C13.25 2.81047 13.5858 2.47468 14 2.47468Z" fill="currentColor"/>
    <path d="M11.6372 2.25669C16.7376 2.06757 21.1204 5.84445 21.6867 10.9168 21.7327 11.3284 21.4362 11.6994 21.0246 11.7454 20.6129 11.7913 20.2419 11.4949 20.196 11.0832 19.7168 6.79137 16.0084 3.59564 11.6928 3.75566 7.37726 3.91568 3.91568 7.37726 3.75566 11.6928 3.59564 16.0084 6.79137 19.7168 11.0832 20.196 11.4949 20.2419 11.7913 20.6129 11.7454 21.0246 11.6994 21.4362 11.3284 21.7327 10.9168 21.6867 5.84445 21.1204 2.06757 16.7376 2.25669 11.6372 2.44581 6.53689 6.53689 2.44581 11.6372 2.25669Z" fill="currentColor"/>
    <path d="M19.5 15.25H15.5C14.2574 15.25 13.25 16.2574 13.25 17.5V19.5C13.25 20.7426 14.2574 21.75 15.5 21.75H19.5C20.7426 21.75 21.75 20.7426 21.75 19.5V17.5C21.75 16.2574 20.7426 15.25 19.5 15.25ZM19.5 16.75C19.9142 16.75 20.25 17.0858 20.25 17.5V19.5C20.25 19.9142 19.9142 20.25 19.5 20.25H15.5C15.0858 20.25 14.75 19.9142 14.75 19.5V17.5C14.75 17.0858 15.0858 16.75 15.5 16.75H19.5Z" fill="currentColor"/>
    <path d="M17.5 11.75C19.0188 11.75 20.25 12.9812 20.25 14.5V16C20.25 16.4142 19.9142 16.75 19.5 16.75 19.0858 16.75 18.75 16.4142 18.75 16V14.5C18.75 13.8096 18.1904 13.25 17.5 13.25 16.8096 13.25 16.25 13.8096 16.25 14.5V16C16.25 16.4142 15.9142 16.75 15.5 16.75 15.0858 16.75 14.75 16.4142 14.75 16V14.5C14.75 12.9812 15.9812 11.75 17.5 11.75Z" fill="currentColor"/>
    </g>
    </g>
    </g>
  </symbol>
  <symbol id="icon-shield-cash" viewBox="0 0 24 24">
    <title>Sensitive financial data</title>
    <g>
    <g>
    <g>
    <g>
    <polygon points="0 0 24 0 24 24 0 24" fill-rule="evenodd" stroke="none" fill="none"/>
    <path d="M12 7.25C12.3797 7.25 12.6935 7.53215 12.7432 7.89823L12.75 8V8.80786C12.75 9.22207 12.4142 9.55786 12 9.55786 11.6203 9.55786 11.3065 9.27571 11.2568 8.90963L11.25 8.80786V8C11.25 7.58579 11.5858 7.25 12 7.25Z" stroke="none" fill="currentColor"/>
    <path d="M12.0708 8.06121C12.4832 8.10033 12.7858 8.46633 12.7466 8.8787 12.7108 9.25669 12.4003 9.54244 12.0311 9.5573L11.9292 9.55451C11.3793 9.50234 10.8845 9.86899 10.7647 10.396L10.7449 10.5113C10.6964 10.9226 10.3237 11.2169 9.91232 11.1684 9.50094 11.12 9.20672 10.7473 9.25514 10.3359 9.41306 8.9944 10.5718 8.00976 11.9035 8.0507L12.0708 8.06121Z" stroke="none" fill="currentColor"/>
    <path d="M12 14.4421C12.3797 14.4421 12.6935 14.7243 12.7432 15.0904L12.75 15.1921V16C12.75 16.4142 12.4142 16.75 12 16.75 11.6203 16.75 11.3065 16.4678 11.2568 16.1018L11.25 16V15.1921C11.25 14.7779 11.5858 14.4421 12 14.4421Z" stroke="none" fill="currentColor"/>
    <path d="M14.0877 12.8316C14.4991 12.88 14.7933 13.2527 14.7449 13.6641 14.5804 15.0615 13.3299 16.0717 11.9292 15.9388 11.5168 15.8997 11.2142 15.5337 11.2534 15.1213 11.2892 14.7433 11.5997 14.4576 11.9689 14.4427L12.0708 14.4455C12.6207 14.4977 13.1155 14.131 13.2353 13.604L13.2551 13.4887C13.2995 13.1116 13.6164 12.833 13.9858 12.8265L14.0877 12.8316Z" stroke="none" fill="currentColor"/>
    <path d="M11.9531 8.05933C13.1394 7.98496 14.2349 8.69496 14.6515 9.80821 14.7967 10.1961 14.5999 10.6283 14.2119 10.7735 13.8563 10.9066 13.4635 10.7523 13.2887 10.4269L13.2466 10.3339C13.0769 9.88024 12.6534 9.57718 12.1778 9.55529L12.0469 9.55639C11.6335 9.58231 11.2774 9.26818 11.2515 8.85478 11.2256 8.44138 11.5397 8.08524 11.9531 8.05933Z" stroke="none" fill="currentColor"/>
    <path d="M9.78806 13.2265C10.1437 13.0934 10.5365 13.2477 10.7113 13.5731L10.7534 13.6661C10.9231 14.1198 11.3466 14.4228 11.8222 14.4447L11.9531 14.4436C12.3665 14.4177 12.7226 14.7318 12.7485 15.1452 12.7744 15.5586 12.4603 15.9148 12.0469 15.9407 10.8606 16.015 9.76512 15.305 9.34851 14.1918 9.20333 13.8039 9.40012 13.3717 9.78806 13.2265Z" stroke="none" fill="currentColor"/>
    <path d="M10 9.67358C10.3797 9.67358 10.6935 9.95573 10.7432 10.3218L10.75 10.4236C10.75 10.7138 10.9321 10.9682 11.1974 11.0661L11.3007 11.0953 12.9935 11.4339C14.0148 11.6381 14.75 12.5349 14.75 13.5764 14.75 13.9906 14.4142 14.3264 14 14.3264 13.6203 14.3264 13.3065 14.0443 13.2568 13.6782L13.25 13.5764C13.25 13.2862 13.0679 13.0318 12.8026 12.9339L12.6993 12.9047 11.0065 12.5661C9.98516 12.3619 9.25 11.4651 9.25 10.4236 9.25 10.0094 9.58579 9.67358 10 9.67358Z" stroke="none" fill="currentColor"/>
    <path d="M10.4957 2.68793L10.3312 2.80106C8.72794 3.97642 6.82752 4.67923 4.84529 4.82986 3.93642 4.92881 3.26287 5.66923 3.25 6.5586V13.0208C3.25 16.1209 5.71732 18.6847 9.29287 20.7325L9.89883 21.069 10.5239 21.396C11.4529 21.869 12.5528 21.868 13.4815 21.3933 17.7124 19.2428 20.75 16.4682 20.75 13.0208V6.56938C20.7371 5.66924 20.0636 4.92882 19.1794 4.83214 17.2979 4.68878 15.5101 4.06212 13.9729 3.01588L13.6688 2.80106C12.7351 2.10612 11.4699 2.06752 10.4957 2.68793ZM12.7776 4.0076C14.6112 5.35182 16.7795 6.15368 19.0411 6.32554 19.1479 6.33764 19.2482 6.44782 19.2501 6.58016V13.0208C19.2501 15.6843 16.5488 18.1516 12.8003 20.0569 12.298 20.3136 11.705 20.3141 11.2039 20.059 7.4595 18.1564 4.75 15.6814 4.75 13.0208V6.56938C4.75183 6.44782 4.85205 6.33764 4.98363 6.32326 7.08898 6.16366 9.13351 5.44397 10.8954 4.23917L11.2224 4.0076C11.6839 3.66413 12.3161 3.66413 12.7776 4.0076Z" stroke="none" fill="currentColor"/>
    </g>
    </g>
    </g>
    </g>
  </symbol>
  <symbol id="icon-lightning" viewBox="0 0 24 24">
    <title>Fast/offline execution</title>
    <g>
    <g>
    <g>
    <g>
    <g transform="translate(3 3)">
    <g>
    <path d="M8.83492 3.2495C8.33984 3.23646 7.87698 3.49418 7.62729 3.92188L4.44164 9.33458C4.05552 9.9792 4.2667 10.8212 4.91628 11.2103L5.04312 11.2775C5.21634 11.3579 5.40499 11.4016 5.59702 11.4049L7.843 11.404 7.844 13.378C7.82705 14.1101 8.42055 14.7314 9.1698 14.7485 9.66317 14.7598 10.1238 14.5024 10.3726 14.0762L13.5583 8.66552C13.9445 8.0208 13.7333 7.17881 13.0837 6.78974L12.9569 6.72253C12.7837 6.64205 12.595 6.59844 12.403 6.59511L10.155 6.594 10.156 4.622C10.1743 3.93545 9.65157 3.34292 8.9654 3.25914L8.83492 3.2495ZM8.656 5.131L8.656 7.345 8.66285 7.44677C8.71251 7.81285 9.0263 8.095 9.406 8.095L12.153 8.094 9.343 12.867 9.344 10.655 9.33715 10.5532C9.28749 10.1872 8.9737 9.905 8.594 9.905L5.846 9.904 8.656 5.131Z" stroke="none" fill="currentColor"/>
    <path d="M9-.75C3.61522-.75-.75 3.61522-.75 9 -.75 14.3848 3.61522 18.75 9 18.75 14.3848 18.75 18.75 14.3848 18.75 9 18.75 3.61522 14.3848-.75 9-.75ZM9 .75C13.5563.75 17.25 4.44365 17.25 9 17.25 13.5563 13.5563 17.25 9 17.25 4.44365 17.25.75 13.5563.75 9 .75 4.44365 4.44365.75 9 .75Z" stroke="none" fill="currentColor"/>
    </g>
    </g>
    <polygon points="0 0 24 0 24 24 0 24" fill-rule="evenodd" stroke="none" fill="none"/>
    </g>
    </g>
    </g>
    </g>
  </symbol>
  <symbol id="icon-streaming" viewBox="0 0 24 24">
    <title>Streaming response flow</title>
    <g>
    <g>
    <g>
    <g>
    <rect fill-rule="evenodd" stroke="none" width="24" height="24" fill="none"/>
    <path d="M12.0001 7.24999C12.3798 7.25003 12.6936 7.53222 12.7432 7.8983L12.7501 8.00007 12.75 9.00007C12.7499 9.41428 12.4141 9.75004 11.9999 9.74999 11.6202 9.74996 11.3064 9.46777 11.2568 9.10169L11.25 8.99992 11.2501 7.99992C11.2501 7.58571 11.5859 7.24995 12.0001 7.24999Z" stroke="none" fill="currentColor"/>
    <path d="M12.0001 14.25C12.3798 14.25 12.6936 14.5322 12.7432 14.8983L12.7501 15.0001 12.75 16.0001C12.7499 16.4143 12.4141 16.75 11.9999 16.75 11.6202 16.75 11.3064 16.4678 11.2568 16.1017L11.25 15.9999 11.2501 14.9999C11.2501 14.5857 11.5859 14.25 12.0001 14.25Z" stroke="none" fill="currentColor"/>
    <path d="M7.88644 9.6249C8.07632 9.29609 8.47758 9.16545 8.81943 9.30551L8.91098 9.35048 9.77695 9.85056C10.1357 10.0577 10.2585 10.5164 10.0514 10.8751 9.86149 11.2039 9.46023 11.3345 9.11838 11.1945L9.02683 11.1495 8.16086 10.6494C7.80216 10.4423 7.6793 9.9836 7.88644 9.6249Z" stroke="none" fill="currentColor"/>
    <path d="M13.9486 13.1249C14.1385 12.7961 14.5398 12.6655 14.8816 12.8055L14.9732 12.8505 15.8391 13.3506C16.1978 13.5577 16.3207 14.0164 16.1136 14.3751 15.9237 14.7039 15.5224 14.8345 15.1806 14.6945L15.089 14.6495 14.223 14.1494C13.8643 13.9423 13.7415 13.4836 13.9486 13.1249Z" stroke="none" fill="currentColor"/>
    <path d="M9.02701 12.8505C9.38575 12.6434 9.84443 12.7664 10.0515 13.1251 10.2413 13.454 10.1538 13.8668 9.86159 14.0928L9.77687 14.1496 8.91081 14.6495C8.55206 14.8566 8.09338 14.7336 7.88631 14.3749 7.6965 14.046 7.78399 13.6332 8.07622 13.4072L8.16094 13.3504 9.02701 12.8505Z" stroke="none" fill="currentColor"/>
    <path d="M15.0892 9.35048C15.4479 9.14341 15.9066 9.26636 16.1137 9.62511 16.3035 9.95395 16.216 10.3668 15.9238 10.5928L15.8391 10.6496 14.973 11.1495C14.6143 11.3566 14.1556 11.2336 13.9485 10.8749 13.7587 10.546 13.8462 10.1332 14.1384 9.9072L14.2231 9.85039 15.0892 9.35048Z" stroke="none" fill="currentColor"/>
    <path d="M5.66127 4.56732C2.11498 7.60385 1.22518 12.723 3.50208 16.7682L3.647 17.018 3.26732 19.2939C3.20077 19.6922 3.33078 20.0981 3.61635 20.3837L3.71583 20.4731C3.99204 20.6958 4.35214 20.7919 4.70622 20.7327L6.981 20.352 7.23162 20.4979C11.3611 22.8223 16.6098 21.8467 19.6196 18.1139 22.7524 14.2286 22.4519 8.60654 18.9228 5.0774 15.3937 1.54826 9.77167 1.24762 5.88636 4.38028L5.66127 4.56732ZM17.8621 6.13805C20.8492 9.12517 21.1036 13.8838 18.452 17.1723 15.8003 20.4609 11.096 21.2211 7.54346 18.9353L7.44584 18.8823C7.31135 18.8216 7.16113 18.8017 7.014 18.8263L4.804 19.195 5.1737 16.9858C5.20442 16.802 5.16555 16.6132 5.06467 16.4564 2.77889 12.9039 3.53929 8.19952 6.82787 5.54799 10.0434 2.95538 14.6643 3.14105 17.6604 5.94296L17.8621 6.13805Z" stroke="none" fill="currentColor"/>
    </g>
    </g>
    </g>
    </g>
  </symbol>
  <symbol id="icon-play" viewBox="0 0 24 24">
    <title>Presentation video button</title>
    <g>
    <g>
    <g>
    <path d="M9.36193 8.00045C8.76087 8.3406 8.38919 8.97771 8.38889 9.66833V14.3314C8.38919 15.0223 8.76087 15.6594 9.36193 15.9996 9.96298 16.3397 10.7005 16.3304 11.2927 15.9751L15.18 13.6438C15.7576 13.2976 16.1111 12.6735 16.1111 12 16.1111 11.3265 15.7576 10.7024 15.1799 10.3562L11.2927 8.02497C10.7005 7.66966 9.96298 7.6603 9.36193 8.00045ZM10.521 9.31123L14.4086 11.6426C14.5343 11.718 14.6111 11.8536 14.6111 12 14.6111 12.1464 14.5343 12.282 14.4087 12.3573L10.5212 14.6887C10.3921 14.7661 10.2316 14.7682 10.1007 14.6941 9.96987 14.6201 9.88896 14.4814 9.88889 14.331V9.66866C9.88896 9.51864 9.96987 9.37995 10.1007 9.3059 10.2316 9.23185 10.3921 9.23389 10.521 9.31123Z" fill="currentColor"/>
    <path d="M17 2.25H7C3.82436 2.25 1.25 4.82436 1.25 8V16C1.25 19.1756 3.82436 21.75 7 21.75H17C20.1756 21.75 22.75 19.1756 22.75 16V8C22.75 4.82436 20.1756 2.25 17 2.25ZM17 3.75C19.3472 3.75 21.25 5.65279 21.25 8V16C21.25 18.3472 19.3472 20.25 17 20.25H7C4.65279 20.25 2.75 18.3472 2.75 16V8C2.75 5.65279 4.65279 3.75 7 3.75H17Z" fill="currentColor"/>
    </g>
    </g>
    </g>
  </symbol>
  <symbol id="icon-arrow-left" viewBox="0 0 24 24">
    <title>Previous carousel control</title>
    <g>
    <g>
    <g>
    <g>
    <path d="M13.4697 7.46967C13.7626 7.17678 14.2374 7.17678 14.5303 7.46967 14.7966 7.73594 14.8208 8.1526 14.6029 8.44621L14.5303 8.53033 11.061 12 14.5303 15.4697C14.7966 15.7359 14.8208 16.1526 14.6029 16.4462L14.5303 16.5303C14.2641 16.7966 13.8474 16.8208 13.5538 16.6029L13.4697 16.5303 9.46967 12.5303C9.2034 12.2641 9.1792 11.8474 9.39705 11.5538L9.46967 11.4697 13.4697 7.46967Z" stroke="none" fill="currentColor"/>
    <polygon points="0 0 24 0 24 24 0 24" fill-rule="evenodd" stroke="none" fill="none"/>
    </g>
    </g>
    </g>
    </g>
  </symbol>
  <symbol id="icon-arrow-right" viewBox="0 0 24 24">
    <title>Next carousel control</title>
    <g>
    <g>
    <g>
    <g>
    <polygon points="0 0 24 0 24 24 0 24" fill-rule="evenodd" stroke="none" fill="none"/>
    <path d="M9.46967 7.46967C9.73594 7.2034 10.1526 7.1792 10.4462 7.39705L10.5303 7.46967 14.5303 11.4697C14.7966 11.7359 14.8208 12.1526 14.6029 12.4462L14.5303 12.5303 10.5303 16.5303C10.2374 16.8232 9.76256 16.8232 9.46967 16.5303 9.2034 16.2641 9.1792 15.8474 9.39705 15.5538L9.46967 15.4697 12.939 12 9.46967 8.53033C9.2034 8.26406 9.1792 7.8474 9.39705 7.55379L9.46967 7.46967Z" stroke="none" fill="currentColor"/>
    </g>
    </g>
    </g>
    </g>
  </symbol>
  <symbol id="icon-close" viewBox="0 0 24 24">
    <title>Close modal</title>
    <g>
    <g>
    <g>
    <g>
    <polygon points="0 0 24 0 24 24 0 24" fill-rule="evenodd" stroke="none" fill="none"/>
    <path d="M7.46967 7.46967C7.73594 7.2034 8.1526 7.1792 8.44621 7.39705L8.53033 7.46967 16.5303 15.4697C16.8232 15.7626 16.8232 16.2374 16.5303 16.5303 16.2641 16.7966 15.8474 16.8208 15.5538 16.6029L15.4697 16.5303 7.46967 8.53033C7.17678 8.23744 7.17678 7.76256 7.46967 7.46967Z" stroke="none" fill="currentColor"/>
    <path d="M15.4697 7.46967C15.7626 7.17678 16.2374 7.17678 16.5303 7.46967 16.7966 7.73594 16.8208 8.1526 16.6029 8.44621L16.5303 8.53033 8.53033 16.5303C8.23744 16.8232 7.76256 16.8232 7.46967 16.5303 7.2034 16.2641 7.1792 15.8474 7.39705 15.5538L7.46967 15.4697 15.4697 7.46967Z" stroke="none" fill="currentColor"/>
    </g>
    </g>
    </g>
    </g>
  </symbol>
  <symbol id="icon-email" viewBox="0 0 24 24">
    <title>Email contact</title>
    <g>
    <g>
    <g>
    <g>
    <polygon points="0 0 24 0 24 24 0 24" fill-rule="evenodd" stroke="none" fill="none"/>
    <path d="M17 3.75H7C4.37665 3.75 2.25 5.87665 2.25 8.5V15.5C2.25 18.1234 4.37665 20.25 7 20.25H17C19.6234 20.25 21.75 18.1234 21.75 15.5V8.5C21.75 5.87665 19.6234 3.75 17 3.75ZM7 5.25H17C18.7949 5.25 20.25 6.70507 20.25 8.5V15.5C20.25 17.2949 18.7949 18.75 17 18.75H7C5.20507 18.75 3.75 17.2949 3.75 15.5V8.5C3.75 6.70507 5.20507 5.25 7 5.25Z" stroke="none" fill="currentColor"/>
    <path d="M6.3125 8.68401C6.46426 8.33596 6.84831 8.16108 7.20373 8.26187L7.29975 8.29626 11.5044 10.1295C11.7764 10.2481 12.0802 10.2655 12.3615 10.1815L12.5001 10.131 16.7023 8.31398C17.0825 8.14958 17.524 8.32452 17.6884 8.70472 17.8391 9.05323 17.7047 9.45323 17.3884 9.64411L17.2977 9.69078 13.0954 11.5078C12.4599 11.7826 11.7465 11.8066 11.0975 11.58L10.9049 11.5045 6.70025 9.67126C6.32056 9.50571 6.14696 9.0637 6.3125 8.68401Z" stroke="none" fill="currentColor"/>
    </g>
    </g>
    </g>
    </g>
  </symbol>
</svg>
